<?xml version="1.0" encoding="utf-8"?>
<!-- Svg Vector Icons : http://www.onlinewebfonts.com/iconRemoteUrl -->
<!DOCTYPE svg PUBLIC "-//W3C//DTD SVG 1.1//EN" "http://www.w3.org/Graphics/SVG/1.1/DTD/svg11.dtd">
<svg version="1.1" xmlns="http://www.w3.org/2000/svg" xmlns:xlink="http://www.w3.org/1999/xlink" x="0px" y="0px" viewBox="0 0 1000 1000" enable-background="new 0 0 1000 1000" xml:space="preserve">
<metadata> Svg Vector Icons : http://www.onlinewebfonts.com/iconRemoteUrl </metadata>
<g><g transform="translate(0.000000,511.000000) scale(0.100000,-0.100000)"><path d="M4119,4938.9c-1468.4-262.4-2784-1241.3-3477.1-2584.3C46.7,1199.5-66.9-202.3,344.3-1431.8C912.1-3135.1,2400-4415.6,4158.1-4720.9c450.3-78.3,1233.5-78.3,1683.8,0c1495.8,258.4,2815.4,1229.5,3516.2,2588.2c595.2,1155.1,708.8,2556.9,297.6,3786.4C9087.9,3357,7600,4637.4,5841.9,4942.8C5403.3,5021.2,4549.7,5017.2,4119,4938.9z M5708.7,4355.5c924.1-160.5,1691.6-563.8,2365.1-1249.1c1950-1981.3,1523.2-5243-877.1-6691.8c-356.3-215.4-877.1-422.9-1303.9-520.8c-395.5-90-1390.1-90-1785.5,0c-928,211.5-1801.2,736.2-2384.6,1433.1C281.6-958,367.8,1516.7,1926.2,3106.4C2932.5,4132.3,4322.6,4594.4,5708.7,4355.5z"/><path d="M3034.3,1215.2C2141.6,322.4,2063.2,236.3,2063.2,111c0-125.3,78.3-211.4,971.1-1104.2c1041.6-1041.6,1061.1-1057.2,1276.5-888.8c74.4,58.7,101.8,113.5,101.8,223.2c0,129.2-50.9,191.9-653.9,798.8l-653.9,657.8l2341.6,7.8L7788-182.7l74.4,93.9c94,117.5,94,281.9,0,399.4l-74.4,94l-2341.6,11.7l-2341.6,7.8l653.9,657.8c603,606.9,653.9,669.6,653.9,798.8c0,109.6-27.4,164.4-101.8,223.2C4095.5,2272.4,4075.9,2256.7,3034.3,1215.2z"/></g></g>
</svg>