<?xml version="1.0" encoding="utf-8"?>
<!-- Svg Vector Icons : http://www.onlinewebfonts.com/iconRemoteUrl -->
<!DOCTYPE svg PUBLIC "-//W3C//DTD SVG 1.1//EN" "http://www.w3.org/Graphics/SVG/1.1/DTD/svg11.dtd">
<svg version="1.1" xmlns="http://www.w3.org/2000/svg" xmlns:xlink="http://www.w3.org/1999/xlink" x="0px" y="0px" viewBox="0 0 1000 1000" enable-background="new 0 0 1000 1000" xml:space="preserve">
<metadata> Svg Vector Icons : http://www.onlinewebfonts.com/iconRemoteUrl </metadata>
<g><path d="M500,10C229.8,10,10,229.8,10,500c0,270.2,219.8,490,490,490c270.2,0,490-219.8,490-490C990,229.8,770.2,10,500,10 M500,928.7C263.6,928.7,71.3,736.4,71.3,500C71.3,263.6,263.6,71.3,500,71.3S928.8,263.6,928.8,500S736.4,928.7,500,928.7 M582.9,294.6c-12-12-31.3-12-43.3,0c-12,12-12,31.3,0,43.3l131.5,131.5l-416.1,0c-16.9,0-30.6,13.7-30.6,30.6c0,16.9,13.7,30.6,30.6,30.6h416.1L539.6,662.1c-12,12-12,31.3,0,43.3c6,6,13.8,9,21.7,9s15.7-3,21.7-9l183.7-183.7c12-12,12-31.3,0-43.3L582.9,294.6z"/></g>
</svg>