<svg width="172" height="80" xmlns="http://www.w3.org/2000/svg"><g fill="#FFF" fill-rule="evenodd"><path d="M57.322 42.129l-43.985 28.97-6.64.244L0 64.017l2.485-13.695 17.21-3.936 3.075 3.212-5.522 1.282-11.665 3.23-1.84 9.061 4.912 3.235 8.597-2.59L57.167 35.33l13.51-3.886 22.106-3.884 21.492-8.197 5.53-4.314h5.523l4.3-2.971 3.072-.674 3.07-4.546 3.684-.655.612-4.057 1.843 1.769h6.143l1.229-1.856h5.525L159.105 0l1.843.204h1.84l1.23 1.856h4.296l1.232 1.26L172 5.473l-.616 2.154h-.61l-1.228 3.873-.616 3.55h-.616l-.61-1.856H163.4l-3.055 2.066v9.065l3.83-1.099-4.459 6.67h-4.298l-2.114-1.041v-4.53l-7.388-5.827-2.924-5.827 1.914 6.474 8.021 5.826-.595 1.944-3.063.646.62 12.302-3.066 4.531 2.893 10.359 5.348 7.118v3.886l7.7 7.123 5.539-.65 2.462 3.24L169.54 80l-10.438-.648-27.018-26.542-19.037 1.297-9.21-3.888-12.896-1.295-14.124 3.886-11.054 9.71-19.65 4.529-3.071 5.181 3.686 3.24-1.229 3.237L37.517 80l-2.457-1.943 3.07-14.89 8.599-3.882 9.21-9.066 7.37-11.006 6.14-4.531-7.37 3.885-1.84 2.59z"/><path d="M82 53.407l3.232 3.978-3.114 11.202L90.99 78H99v-4.63l-1.957-1.3-2.71 1.3-4.191-5.844 5.785-8.436-1.208-7.791L90.961 50zm34 1.952L126.29 54l-3.248 9.54 1.083 7.647 3.25.628L129 74.726 128.46 77h-8.667l-2.708-9.466z"/></g></svg>