<?xml version="1.0" encoding="utf-8"?>
<!-- Svg Vector Icons : http://www.onlinewebfonts.com/icon -->
<!DOCTYPE svg PUBLIC "-//W3C//DTD SVG 1.1//EN" "http://www.w3.org/Graphics/SVG/1.1/DTD/svg11.dtd">
<svg version="1.1" xmlns="http://www.w3.org/2000/svg" xmlns:xlink="http://www.w3.org/1999/xlink" x="0px" y="0px" viewBox="0 0 1000 1000" enable-background="new 0 0 1000 1000" xml:space="preserve">
<metadata> Svg Vector Icons : http://www.onlinewebfonts.com/icon </metadata>
<g><path d="M959.4,622.5H653.1c-16.9,0-30.6,13.8-30.6,30.6s13.7,30.6,30.6,30.6h233.8c-68.9,144.9-216,245-386.9,245c-215.9,0-394.1-159.9-423.9-367.5H14.2C44.5,802.9,250.2,990,500,990c184.6,0,345.2-102.3,428.8-253v222.3c0,16.8,13.7,30.6,30.6,30.6s30.6-13.8,30.6-30.6V653.1C990,620.7,959.4,622.5,959.4,622.5L959.4,622.5z M40.6,377.5h306.3c16.9,0,30.6-13.8,30.6-30.6s-13.7-30.6-30.6-30.6h-234C181.7,171.4,329,71.3,500,71.3c215.9,0,394.1,159.9,423.9,367.5h61.9C955.5,197.1,749.8,10,500,10C315.4,10,154.8,112.3,71.3,263V40.6C71.3,23.8,57.5,10,40.6,10S10,23.8,10,40.6v306.3C10,376.6,40.6,377.5,40.6,377.5L40.6,377.5z"/></g>
</svg>